<?xml version="1.0" encoding="UTF-8" standalone="no"?>
<svg
   xmlns:dc="http://purl.org/dc/elements/1.1/"
   xmlns:cc="http://creativecommons.org/ns#"
   xmlns:rdf="http://www.w3.org/1999/02/22-rdf-syntax-ns#"
   xmlns:svg="http://www.w3.org/2000/svg"
   xmlns="http://www.w3.org/2000/svg"
   xmlns:sodipodi="http://sodipodi.sourceforge.net/DTD/sodipodi-0.dtd"
   xmlns:inkscape="http://www.inkscape.org/namespaces/inkscape"
   width="4e3"
   height="2250"
   version="1.1"
   viewBox="0 0 1058.3333 595.31252"
   id="svg2"
   inkscape:version="0.91 r13725"
   sodipodi:docname="header.svg">
  <metadata
     id="metadata104">
    <rdf:RDF>
      <cc:Work
         rdf:about="">
        <dc:format>image/svg+xml</dc:format>
        <dc:type
           rdf:resource="http://purl.org/dc/dcmitype/StillImage" />
        <dc:title></dc:title>
      </cc:Work>
    </rdf:RDF>
  </metadata>
  <defs
     id="defs102" />
  <sodipodi:namedview
     pagecolor="#ffffff"
     bordercolor="#666666"
     borderopacity="1"
     objecttolerance="10"
     gridtolerance="10"
     guidetolerance="10"
     inkscape:pageopacity="0"
     inkscape:pageshadow="2"
     inkscape:window-width="1863"
     inkscape:window-height="1056"
     id="namedview100"
     showgrid="false"
     inkscape:zoom="0.40828361"
     inkscape:cx="2356.0676"
     inkscape:cy="1360.1765"
     inkscape:window-x="57"
     inkscape:window-y="24"
     inkscape:window-maximized="1"
     inkscape:current-layer="g58" />
  <g
     transform="matrix(0.68443763,0,0,0.75786407,284.37253,124.30908)"
     id="g10">
    <path
       d="m 563.62,-9.9856 a 49.181,48.614 0 0 1 41.566,48.027 49.181,48.614 0 0 1 -49.181,48.614 49.181,48.614 0 0 1 -49.181,-48.614 49.181,48.614 0 0 1 41.773,-48.059"
       id="path12"
       inkscape:connector-curvature="0"
       style="fill:none;stroke:#222222;stroke-width:2;stroke-opacity:1" />
    <path
       d="m 548.6,-10.017 c -8.7938,1.7001 -17.264,5.8554 -17.264,5.8554 0,0 15.502,-6.7486 16.37,-10.156 1.5412,-6.0461 -3.8754,-10.156 -3.8754,-10.156 l 2.94,-5.6127 -3.6081,-6.949 6.949,-6.1472 15.234,-0.66818 6.2808,8.0181 -3.7418,4.1427 2.4054,3.6081 -4.1427,6.4145 c 0,0 -2.3386,6.0804 3.1404,10.624 5.479,4.5436 10.136,5.1876 17.84,10.824 -7.6239,-5.969 -16.252,-8.4573 -23.27,-9.6157"
       id="path14"
       inkscape:connector-curvature="0"
       style="fill:none;stroke:#ea694d;stroke-width:2;stroke-opacity:1" />
    <path
       d="m 551.65,-44.694 a 6.2184,6.214 0 0 1 6.1104,-6.2902 6.2184,6.214 0 0 1 6.3245,6.0752"
       id="path16"
       inkscape:connector-curvature="0"
       style="fill:none;stroke:#ea694d;stroke-width:1.61909997;stroke-linecap:round;stroke-opacity:1" />
    <path
       d="m 561.59,-20.758 -8.7537,-0.14173 c 0,0 -13.826,30.151 -15.89,46.354 -0.22024,1.7284 -1.1686,4.455 0.4009,5.2118 3.0047,1.4489 8.2977,-2.2769 8.2854,-5.6127 -0.004,-0.96365 0.54403,-4.7001 -2.4054,-1.6036 -2.9495,2.9075 -0.62486,6.1715 2.0478,8.3097 2.6727,2.1382 5.6729,-1.9024 7.1028,-3.9092 1.6874,-2.3681 0.79115,-5.6909 -2.1868,-3.2517 -2.9387,2.407 -1.5915,5.8917 -0.0148,8.072 0.91233,1.2617 2.9597,1.9425 4.4384,1.4552 2.1942,-0.72313 3.8263,-3.349 4.0116,-5.6518 0.10725,-1.3333 -0.29283,-3.7247 -1.7697,-3.6014 -2.8755,0.23996 -3.6674,6.3119 -0.53315,8.5999 4.4099,2.0045 6.1013,0.522 7.6172,-1.5821 1.2577,-1.7457 1.3949,-6.3531 -0.75595,-6.4103 -2.5806,-0.0686 -2.973,5.6538 -1.3146,7.632 1.4234,1.6978 5.153,1.6686 6.6465,0.0322 1.6662,-1.8256 1.7492,-7.1482 -0.71148,-7.3807 -2.9888,-0.28243 -2.7964,7.3346 -0.21307,8.5026 1.938,0.87629 5.1998,-2.27 4.6837,-4.3333 -3.6501,-14.592 -7.5669,-39.918 -10.685,-50.691 z"
       id="path18"
       inkscape:connector-curvature="0"
       style="fill:none;stroke:#222222;stroke-width:2;stroke-opacity:1" />
    <path
       d="m 548.41,-21.221 16.966,0.17156 -0.21977,4.675 -16.527,0.4289 z"
       id="path20"
       inkscape:connector-curvature="0"
       style="fill:#ea694d;stroke:#ea694d;stroke-width:1.80540001;stroke-opacity:1;fill-opacity:1" />
    <path
       d="m 544.03,-25.461 c 0,0 7.6306,-2.0726 13.56,-2.0464 4.263,0.0189 10.721,2.2473 10.721,2.2473 l 2.5458,-4.377 -3.0078,-1.9531 -20.879,0.5165 z"
       id="path22"
       inkscape:connector-curvature="0"
       style="fill:none;stroke:#ea694d;stroke-width:2;stroke-opacity:1" />
    <path
       d="m 545.31,-35.086 c 0,0 7.6068,-2.6458 12.284,-2.0316 4.6775,0.61422 11.481,2.7403 11.481,2.7403 l 2.7483,-2.4422 -6.2808,-8.0181 -15.234,0.66818 -6.949,6.1472 z"
       id="path24"
       inkscape:connector-curvature="0"
       style="fill:none;stroke:#ea694d;stroke-width:1.89999998;stroke-opacity:1" />
  </g>
  <g
     transform="matrix(1.1082132,0,0,0.88596081,235.65411,257.10661)"
     id="g26">
    <path
       d="m 563.62,-9.9856 a 49.181,48.614 0 0 1 41.566,48.027 49.181,48.614 0 0 1 -49.181,48.614 49.181,48.614 0 0 1 -49.181,-48.614 49.181,48.614 0 0 1 41.773,-48.059"
       id="path28"
       inkscape:connector-curvature="0"
       style="fill:none;stroke:#222222;stroke-width:2;stroke-opacity:1" />
    <path
       d="m 548.6,-10.017 c -8.7938,1.7001 -17.264,5.8554 -17.264,5.8554 0,0 15.502,-6.7486 16.37,-10.156 1.5412,-6.0461 -3.8754,-10.156 -3.8754,-10.156 l 2.94,-5.6127 -3.6081,-6.949 6.949,-6.1472 15.234,-0.66818 6.2808,8.0181 -3.7418,4.1427 2.4054,3.6081 -4.1427,6.4145 c 0,0 -2.3386,6.0804 3.1404,10.624 5.479,4.5436 10.136,5.1876 17.84,10.824 -7.6239,-5.969 -16.252,-8.4573 -23.27,-9.6157"
       id="path30"
       inkscape:connector-curvature="0"
       style="fill:none;stroke:#ea694d;stroke-width:2;stroke-opacity:1" />
    <path
       d="m 551.65,-44.694 a 6.2184,6.214 0 0 1 6.1104,-6.2902 6.2184,6.214 0 0 1 6.3245,6.0752"
       id="path32"
       inkscape:connector-curvature="0"
       style="fill:none;stroke:#ea694d;stroke-width:1.61909997;stroke-linecap:round;stroke-opacity:1" />
    <path
       d="m 561.59,-20.758 -8.7537,-0.14173 c 0,0 -13.826,30.151 -15.89,46.354 -0.22024,1.7284 -1.1686,4.455 0.4009,5.2118 3.0047,1.4489 8.2977,-2.2769 8.2854,-5.6127 -0.004,-0.96365 0.54403,-4.7001 -2.4054,-1.6036 -2.9495,2.9075 -0.62486,6.1715 2.0478,8.3097 2.6727,2.1382 5.6729,-1.9024 7.1028,-3.9092 1.6874,-2.3681 0.79115,-5.6909 -2.1868,-3.2517 -2.9387,2.407 -1.5915,5.8917 -0.0148,8.072 0.91233,1.2617 2.9597,1.9425 4.4384,1.4552 2.1942,-0.72313 3.8263,-3.349 4.0116,-5.6518 0.10725,-1.3333 -0.29283,-3.7247 -1.7697,-3.6014 -2.8755,0.23996 -3.6674,6.3119 -0.53315,8.5999 4.4099,2.0045 6.1013,0.522 7.6172,-1.5821 1.2577,-1.7457 1.3949,-6.3531 -0.75595,-6.4103 -2.5806,-0.0686 -2.973,5.6538 -1.3146,7.632 1.4234,1.6978 5.153,1.6686 6.6465,0.0322 1.6662,-1.8256 1.7492,-7.1482 -0.71148,-7.3807 -2.9888,-0.28243 -2.7964,7.3346 -0.21307,8.5026 1.938,0.87629 5.1998,-2.27 4.6837,-4.3333 -3.6501,-14.592 -7.5669,-39.918 -10.685,-50.691 z"
       id="path34"
       inkscape:connector-curvature="0"
       style="fill:none;stroke:#222222;stroke-width:2;stroke-opacity:1" />
    <path
       d="m 548.41,-21.221 16.966,0.17156 -0.21977,4.675 -16.527,0.4289 z"
       id="path36"
       inkscape:connector-curvature="0"
       style="fill:#ea694d;stroke:#ea694d;stroke-width:1.80540001;stroke-opacity:1;fill-opacity:1" />
    <path
       d="m 544.03,-25.461 c 0,0 7.6306,-2.0726 13.56,-2.0464 4.263,0.0189 10.721,2.2473 10.721,2.2473 l 2.5458,-4.377 -3.0078,-1.9531 -20.879,0.5165 z"
       id="path38"
       inkscape:connector-curvature="0"
       style="fill:none;stroke:#ea694d;stroke-width:2;stroke-opacity:1" />
    <path
       d="m 545.31,-35.086 c 0,0 7.6068,-2.6458 12.284,-2.0316 4.6775,0.61422 11.481,2.7403 11.481,2.7403 l 2.7483,-2.4422 -6.2808,-8.0181 -15.234,0.66818 -6.949,6.1472 z"
       id="path40"
       inkscape:connector-curvature="0"
       style="fill:none;stroke:#ea694d;stroke-width:1.89999998;stroke-opacity:1" />
  </g>
  <path
     style="fill:none;stroke:#222222;stroke-width:1.41978765;stroke-opacity:1"
     inkscape:connector-curvature="0"
     id="path44"
     d="m 576.78608,193.74885 a 32.697172,36.849812 0 0 1 27.63447,36.40486 32.697172,36.849812 0 0 1 -32.69717,36.84982 32.697172,36.849812 0 0 1 -32.69718,-36.84982 32.697172,36.849812 0 0 1 27.77209,-36.42911" />
  <path
     style="fill:none;stroke:#ea694d;stroke-width:1.41978765;stroke-opacity:1"
     inkscape:connector-curvature="0"
     id="path46"
     d="m 566.80028,193.72505 c -5.84641,1.28869 -11.47768,4.43844 -11.47768,4.43844 0,0 10.30625,-5.11549 10.88332,-7.69833 1.02464,-4.58299 -2.57649,-7.69833 -2.57649,-7.69833 l 1.95461,-4.25447 -2.39879,-5.2674 4.61993,-4.65963 10.12807,-0.50649 4.17569,6.07779 -2.48768,3.1402 1.59919,2.73497 -2.7542,4.86224 c 0,0 -1.55478,4.609 2.08784,8.05308 3.64262,3.44409 6.73875,3.93225 11.86063,8.20468 -5.06862,-4.52455 -10.80487,-6.4107 -15.47067,-7.28878" />
  <path
     style="fill:none;stroke:#ea694d;stroke-width:1.14938903;stroke-linecap:round;stroke-opacity:1"
     inkscape:connector-curvature="0"
     id="path48"
     d="m 568.82803,167.4396 a 4.1342001,4.7102631 0 0 1 4.06239,-4.76802 4.1342001,4.7102631 0 0 1 4.20474,4.60505" />
  <path
     style="fill:none;stroke:#222222;stroke-width:1.41978765;stroke-opacity:1"
     inkscape:connector-curvature="0"
     id="path50"
     d="m 575.43647,185.58329 -5.81975,-0.10744 c 0,0 -9.19199,22.85471 -10.56421,35.13672 -0.14642,1.31014 -0.77692,3.37692 0.26654,3.95058 1.99762,1.09828 5.51658,-1.72591 5.50841,-4.25447 -0.003,-0.73045 0.36169,-3.56271 -1.59919,-1.21554 -1.96093,2.20391 -0.41543,4.67805 1.36144,6.29882 1.7769,1.62077 3.77154,-1.44204 4.72218,-2.96321 1.12184,-1.79504 0.52598,-4.31375 -1.45386,-2.46481 -1.95374,1.82452 -1.05808,4.46596 -0.01,6.11864 0.60655,0.95638 1.96771,1.47243 2.9508,1.10305 1.45878,-0.54813 2.54385,-2.53857 2.66705,-4.28411 0.0713,-1.01065 -0.19469,-2.82335 -1.17656,-2.72989 -1.91173,0.18189 -2.43821,4.78447 -0.35445,6.5188 2.93184,1.51943 4.05634,0.39568 5.06416,-1.19925 0.83617,-1.32325 0.92738,-4.8157 -0.50258,-4.85906 -1.71567,-0.052 -1.97655,4.28563 -0.87399,5.78512 0.94633,1.28695 3.42589,1.26481 4.41882,0.0244 1.10774,-1.38382 1.16293,-5.41839 -0.47302,-5.59463 -1.98705,-0.21409 -1.85914,5.55969 -0.14165,6.44504 1.28844,0.66423 3.457,-1.72068 3.11388,-3.28468 -2.42671,-11.06085 -5.03073,-30.25817 -7.10375,-38.42419 z" />
  <path
     style="fill:#ea694d;stroke:#ea694d;stroke-width:1.28164232;stroke-opacity:1;fill-opacity:1"
     inkscape:connector-curvature="0"
     id="path52"
     d="m 566.67397,185.23233 11.27956,0.13004 -0.14611,3.54369 -10.9877,0.32511 z" />
  <path
     style="fill:none;stroke:#ea694d;stroke-width:1.41978765;stroke-opacity:1"
     inkscape:connector-curvature="0"
     id="path54"
     d="m 563.762,182.01837 c 0,0 5.07307,-1.57105 9.01514,-1.55119 2.83418,0.0143 7.12768,1.70348 7.12768,1.70348 l 1.69253,-3.31781 -1.99969,-1.48046 -13.88105,0.39151 z" />
  <path
     style="fill:none;stroke:#ea694d;stroke-width:1.34879816;stroke-opacity:1"
     inkscape:connector-curvature="0"
     id="path56"
     d="m 564.61298,174.72254 c 0,0 5.05726,-2.00553 8.16682,-1.53997 3.10975,0.46559 7.63295,2.07717 7.63295,2.07717 l 1.82716,-1.8512 -4.17569,-6.07779 -10.12807,0.50649 -4.61993,4.65962 z" />
  <g
     transform="matrix(0.70854341,0,0,0.7397087,359.82553,170.61536)"
     id="g58">
    <path
       d="m 563.62,-9.9856 a 49.181,48.614 0 0 1 41.566,48.027 49.181,48.614 0 0 1 -49.181,48.614 49.181,48.614 0 0 1 -49.181,-48.614 49.181,48.614 0 0 1 41.773,-48.059"
       id="path60"
       inkscape:connector-curvature="0"
       style="fill:none;stroke:#222222;stroke-width:2;stroke-opacity:1" />
    <path
       d="m 548.6,-10.017 c -8.7938,1.7001 -17.264,5.8554 -17.264,5.8554 0,0 15.502,-6.7486 16.37,-10.156 1.5412,-6.0461 -3.8754,-10.156 -3.8754,-10.156 l 2.94,-5.6127 -3.6081,-6.949 6.949,-6.1472 15.234,-0.66818 6.2808,8.0181 -3.7418,4.1427 2.4054,3.6081 -4.1427,6.4145 c 0,0 -2.3386,6.0804 3.1404,10.624 5.479,4.5436 10.136,5.1876 17.84,10.824 -7.6239,-5.969 -16.252,-8.4573 -23.27,-9.6157"
       id="path62"
       inkscape:connector-curvature="0"
       style="fill:none;stroke:#ea694d;stroke-width:2;stroke-opacity:1" />
    <path
       d="m 551.65,-44.694 a 6.2184,6.214 0 0 1 6.1104,-6.2902 6.2184,6.214 0 0 1 6.3245,6.0752"
       id="path64"
       inkscape:connector-curvature="0"
       style="fill:none;stroke:#ea694d;stroke-width:1.61909997;stroke-linecap:round;stroke-opacity:1" />
    <path
       d="m 561.59,-20.758 -8.7537,-0.14173 c 0,0 -13.826,30.151 -15.89,46.354 -0.22024,1.7284 -1.1686,4.455 0.4009,5.2118 3.0047,1.4489 8.2977,-2.2769 8.2854,-5.6127 -0.004,-0.96365 0.54403,-4.7001 -2.4054,-1.6036 -2.9495,2.9075 -0.62486,6.1715 2.0478,8.3097 2.6727,2.1382 5.6729,-1.9024 7.1028,-3.9092 1.6874,-2.3681 0.79115,-5.6909 -2.1868,-3.2517 -2.9387,2.407 -1.5915,5.8917 -0.0148,8.072 0.91233,1.2617 2.9597,1.9425 4.4384,1.4552 2.1942,-0.72313 3.8263,-3.349 4.0116,-5.6518 0.10725,-1.3333 -0.29283,-3.7247 -1.7697,-3.6014 -2.8755,0.23996 -3.6674,6.3119 -0.53315,8.5999 4.4099,2.0045 6.1013,0.522 7.6172,-1.5821 1.2577,-1.7457 1.3949,-6.3531 -0.75595,-6.4103 -2.5806,-0.0686 -2.973,5.6538 -1.3146,7.632 1.4234,1.6978 5.153,1.6686 6.6465,0.0322 1.6662,-1.8256 1.7492,-7.1482 -0.71148,-7.3807 -2.9888,-0.28243 -2.7964,7.3346 -0.21307,8.5026 1.938,0.87629 5.1998,-2.27 4.6837,-4.3333 -3.6501,-14.592 -7.5669,-39.918 -10.685,-50.691 z"
       id="path66"
       inkscape:connector-curvature="0"
       style="fill:none;stroke:#222222;stroke-width:2;stroke-opacity:1" />
    <path
       d="m 548.41,-21.221 16.966,0.17156 -0.21977,4.675 -16.527,0.4289 z"
       id="path68"
       inkscape:connector-curvature="0"
       style="fill:#ea694d;stroke:#ea694d;stroke-width:1.80540001;stroke-opacity:1;fill-opacity:1" />
    <path
       d="m 544.03,-25.461 c 0,0 7.6306,-2.0726 13.56,-2.0464 4.263,0.0189 10.721,2.2473 10.721,2.2473 l 2.5458,-4.377 -3.0078,-1.9531 -20.879,0.5165 z"
       id="path70"
       inkscape:connector-curvature="0"
       style="fill:none;stroke:#ea694d;stroke-width:2;stroke-opacity:1" />
    <path
       d="m 545.31,-35.086 c 0,0 7.6068,-2.6458 12.284,-2.0316 4.6775,0.61422 11.481,2.7403 11.481,2.7403 l 2.7483,-2.4422 -6.2808,-8.0181 -15.234,0.66818 -6.949,6.1472 z"
       id="path72"
       inkscape:connector-curvature="0"
       style="fill:none;stroke:#ea694d;stroke-width:1.89999998;stroke-opacity:1" />
  </g>
  <g
     transform="matrix(0.57749935,0,0,0.71606539,603.40048,127.00018)"
     id="g74">
    <path
       d="m 563.62,-9.9856 a 49.181,48.614 0 0 1 41.566,48.027 49.181,48.614 0 0 1 -49.181,48.614 49.181,48.614 0 0 1 -49.181,-48.614 49.181,48.614 0 0 1 41.773,-48.059"
       id="path76"
       inkscape:connector-curvature="0"
       style="fill:none;stroke:#222222;stroke-width:2;stroke-opacity:1" />
    <path
       d="m 548.6,-10.017 c -8.7938,1.7001 -17.264,5.8554 -17.264,5.8554 0,0 15.502,-6.7486 16.37,-10.156 1.5412,-6.0461 -3.8754,-10.156 -3.8754,-10.156 l 2.94,-5.6127 -3.6081,-6.949 6.949,-6.1472 15.234,-0.66818 6.2808,8.0181 -3.7418,4.1427 2.4054,3.6081 -4.1427,6.4145 c 0,0 -2.3386,6.0804 3.1404,10.624 5.479,4.5436 10.136,5.1876 17.84,10.824 -7.6239,-5.969 -16.252,-8.4573 -23.27,-9.6157"
       id="path78"
       inkscape:connector-curvature="0"
       style="fill:none;stroke:#ea694d;stroke-width:2;stroke-opacity:1" />
    <path
       d="m 551.65,-44.694 a 6.2184,6.214 0 0 1 6.1104,-6.2902 6.2184,6.214 0 0 1 6.3245,6.0752"
       id="path80"
       inkscape:connector-curvature="0"
       style="fill:none;stroke:#ea694d;stroke-width:1.61909997;stroke-linecap:round;stroke-opacity:1" />
    <path
       d="m 561.59,-20.758 -8.7537,-0.14173 c 0,0 -13.826,30.151 -15.89,46.354 -0.22024,1.7284 -1.1686,4.455 0.4009,5.2118 3.0047,1.4489 8.2977,-2.2769 8.2854,-5.6127 -0.004,-0.96365 0.54403,-4.7001 -2.4054,-1.6036 -2.9495,2.9075 -0.62486,6.1715 2.0478,8.3097 2.6727,2.1382 5.6729,-1.9024 7.1028,-3.9092 1.6874,-2.3681 0.79115,-5.6909 -2.1868,-3.2517 -2.9387,2.407 -1.5915,5.8917 -0.0148,8.072 0.91233,1.2617 2.9597,1.9425 4.4384,1.4552 2.1942,-0.72313 3.8263,-3.349 4.0116,-5.6518 0.10725,-1.3333 -0.29283,-3.7247 -1.7697,-3.6014 -2.8755,0.23996 -3.6674,6.3119 -0.53315,8.5999 4.4099,2.0045 6.1013,0.522 7.6172,-1.5821 1.2577,-1.7457 1.3949,-6.3531 -0.75595,-6.4103 -2.5806,-0.0686 -2.973,5.6538 -1.3146,7.632 1.4234,1.6978 5.153,1.6686 6.6465,0.0322 1.6662,-1.8256 1.7492,-7.1482 -0.71148,-7.3807 -2.9888,-0.28243 -2.7964,7.3346 -0.21307,8.5026 1.938,0.87629 5.1998,-2.27 4.6837,-4.3333 -3.6501,-14.592 -7.5669,-39.918 -10.685,-50.691 z"
       id="path82"
       inkscape:connector-curvature="0"
       style="fill:none;stroke:#222222;stroke-width:2;stroke-opacity:1" />
    <path
       d="m 548.41,-21.221 16.966,0.17156 -0.21977,4.675 -16.527,0.4289 z"
       id="path84"
       inkscape:connector-curvature="0"
       style="fill:#ea694d;stroke:#ea694d;stroke-width:1.80540001;stroke-opacity:1;fill-opacity:1" />
    <path
       d="m 544.03,-25.461 c 0,0 7.6306,-2.0726 13.56,-2.0464 4.263,0.0189 10.721,2.2473 10.721,2.2473 l 2.5458,-4.377 -3.0078,-1.9531 -20.879,0.5165 z"
       id="path86"
       inkscape:connector-curvature="0"
       style="fill:none;stroke:#ea694d;stroke-width:2;stroke-opacity:1" />
    <path
       d="m 545.31,-35.086 c 0,0 7.6068,-2.6458 12.284,-2.0316 4.6775,0.61422 11.481,2.7403 11.481,2.7403 l 2.7483,-2.4422 -6.2808,-8.0181 -15.234,0.66818 -6.949,6.1472 z"
       id="path88"
       inkscape:connector-curvature="0"
       style="fill:none;stroke:#ea694d;stroke-width:1.89999998;stroke-opacity:1" />
  </g>
  <path
     d="m 925.65857,89.882116 0,-89.9118401"
     id="path90"
     inkscape:connector-curvature="0"
     style="fill:none;stroke:#ea694d;stroke-width:1.34464109;stroke-opacity:1" />
  <path
     d="m 853.71921,212.11609 0,-212.1458141"
     id="path92"
     inkscape:connector-curvature="0"
     style="fill:none;stroke:#ea694d;stroke-width:2.06548429;stroke-opacity:1" />
  <path
     d="m 755.28583,133.05518 0,-133.0849041"
     id="path94"
     inkscape:connector-curvature="0"
     style="fill:none;stroke:#ea694d;stroke-width:1.63595879;stroke-opacity:1" />
  <path
     d="m 666.3195,86.047287 0,-86.08277776"
     id="path96"
     inkscape:connector-curvature="0"
     style="fill:none;stroke:#ea694d;stroke-width:1.31574547;stroke-opacity:1" />
  <path
     d="m 572.62824,163.30131 0,-163.3310341"
     id="path98"
     inkscape:connector-curvature="0"
     style="fill:none;stroke:#ea694d;stroke-width:1.81233048;stroke-opacity:1" />
</svg>
